<svg width="80" height="68" viewBox="0 0 80 68" fill="none" xmlns="http://www.w3.org/2000/svg">
<path fill-rule="evenodd" clip-rule="evenodd" d="M4.71891 1.46395C1.82891 3.03495 -0.720089 8.08495 0.185911 10.4459C1.12191 12.8859 2.85191 12.2019 3.98791 8.94295C4.56691 7.28095 5.86391 5.48095 6.86991 4.94295C7.95291 4.36395 21.5879 3.96395 40.2649 3.96395C70.4979 3.96395 71.9149 4.04795 73.8309 5.96395C75.7279 7.86095 75.8309 9.29695 75.8309 33.9639C75.8309 58.6309 75.7279 60.0669 73.8309 61.9639C71.9879 63.8069 70.4979 63.9639 54.8309 63.9639H37.8309V48.9639C37.8309 30.1309 37.7259 29.9639 25.8309 29.9639C13.9359 29.9639 13.8309 30.1309 13.8309 48.9639V63.9639H10.8309C9.16391 63.9639 6.94191 63.0749 5.83091 61.9639C3.96391 60.0969 3.83091 58.6309 3.83091 39.9769V19.9909L37.5809 19.7269C66.7969 19.4989 71.3309 19.2629 71.3309 17.9639C71.3309 16.6589 66.7199 16.4639 35.8309 16.4639H0.330911L0.0599114 37.9569C-0.124089 52.5829 0.160911 60.3459 0.950911 62.2539C2.53491 66.0789 6.89491 68.136 12.6329 67.767L17.3309 67.464L17.8309 50.9639L18.3309 34.4639H25.8309H33.3309L33.8309 50.9639L34.3309 67.464L52.8169 67.737C73.0909 68.037 75.9929 67.4849 78.3779 62.8729C80.2929 59.1699 80.5159 9.56095 78.6359 5.43595C76.2399 0.176949 74.6859 -0.0390514 39.6309 0.00394864C13.6839 0.0359486 6.81691 0.322949 4.71891 1.46395ZM47.0309 31.1639C45.4099 32.785 45.4099 49.143 47.0309 50.764C48.6519 52.385 65.0099 52.385 66.6309 50.764C68.2519 49.143 68.2519 32.785 66.6309 31.1639C65.8839 30.4169 62.1869 29.9639 56.8309 29.9639C51.4749 29.9639 47.7779 30.4169 47.0309 31.1639ZM63.8309 40.9639V47.9639H56.8309H49.8309V40.9639V33.9639H56.8309H63.8309V40.9639Z" fill="black"/>
</svg>
