<svg width="46" height="36" viewBox="0 0 46 36" fill="none" xmlns="http://www.w3.org/2000/svg">
<path fill-rule="evenodd" clip-rule="evenodd" d="M0 0.987891C0 1.53789 1.337 1.98789 2.971 1.98789C5.777 1.98789 6.053 2.36489 7.928 8.73789C9.021 12.4499 10.399 17.3929 10.991 19.7209C11.583 22.0489 12.923 24.4119 13.968 24.9709C16.469 26.3089 41 26.3249 41 24.9879C41 24.3729 36.012 23.9879 28.035 23.9879C13.081 23.9879 14.277 24.7889 11.179 12.6979L9.204 4.98789H26.682H44.159L43.466 8.23789C43.084 10.0259 42.171 12.9499 41.437 14.7379L40.102 17.9879H28.051C20.684 17.9879 16 18.3769 16 18.9879C16 19.6009 20.826 19.9879 28.477 19.9879C42.686 19.9879 42.667 19.9989 44.915 10.6379C46.744 3.01889 46.667 2.98789 26 2.98789C11.438 2.98789 8.021 2.71789 7 1.48789C5.615 -0.181109 0 -0.582109 0 0.987891ZM15.04 29.4399C13.485 31.3129 14.028 33.9769 16.25 35.3759C19.715 37.5579 23.617 32.6409 20.96 29.4399C19.416 27.5789 16.584 27.5789 15.04 29.4399ZM33.04 29.4399C31.485 31.3129 32.028 33.9769 34.25 35.3759C37.715 37.5579 41.617 32.6409 38.96 29.4399C37.416 27.5789 34.584 27.5789 33.04 29.4399ZM19.554 31.0749C20.584 32.7429 18.267 34.6549 16.887 33.2749C15.733 32.1209 16.455 29.9879 18 29.9879C18.485 29.9879 19.184 30.4769 19.554 31.0749ZM37.554 31.0749C38.584 32.7429 36.267 34.6549 34.887 33.2749C33.733 32.1209 34.455 29.9879 36 29.9879C36.485 29.9879 37.184 30.4769 37.554 31.0749Z" fill="black"/>
</svg>
